# xmcd
#
# Track frame offsets: 
#        150
#        10033
#        26321
#        30347
#        57650
#        80782
#        86680
#        107129
#        130718
#        155437
#        182972
#
# Disc length: 2675 seconds
#
# Revision: 1
# Processed by: cddbd v1.5.2PL0 Copyright (c) Steve Scherf et al.
# Submitted via: ExactAudioCopy v1.0b3
#
DISCID=830a710b
DTITLE=The Rock Of Travolta - Uluru
DYEAR=2003
DGENRE=Post Rock
TTITLE0=uluru
TTITLE1=clean my boots
TTITLE2=the people made me a star
TTITLE3=luke warm skywater
TTITLE4=clique rock
TTITLE5=the russian piano
TTITLE6=sleep with the lights on
TTITLE7=everthings opened up
TTITLE8=big fish
TTITLE9=baraback
TTITLE10=post
EXTD=YEAR: 2003
EXTT0=
EXTT1=
EXTT2=
EXTT3=
EXTT4=
EXTT5=
EXTT6=
EXTT7=
EXTT8=
EXTT9=
EXTT10=
PLAYORDER=
